<?xml version="1.0" encoding="utf-8" standalone="no"?>
<!DOCTYPE svg PUBLIC "-//W3C//DTD SVG 1.1//EN"
  "http://www.w3.org/Graphics/SVG/1.1/DTD/svg11.dtd">
<!-- Created with matplotlib (http://matplotlib.org/) -->
<svg height="360pt" version="1.1" viewBox="0 0 576 360" width="576pt" xmlns="http://www.w3.org/2000/svg" xmlns:xlink="http://www.w3.org/1999/xlink">
 <defs>
  <style type="text/css">
*{stroke-linecap:butt;stroke-linejoin:round;}
  </style>
 </defs>
 <g id="figure_1">
  <g id="patch_1">
   <path d="
M0 360
L576 360
L576 0
L0 0
z
" style="fill:#ffffff;"/>
  </g>
  <g id="axes_1">
   <g id="patch_2">
    <path d="
M72 324
L518.4 324
L518.4 36
L72 36
z
" style="fill:#ffffff;"/>
   </g>
   <g id="PathCollection_1">
    <defs>
     <path d="
M0 2.23607
C0.593012 2.23607 1.16182 2.00046 1.58114 1.58114
C2.00046 1.16182 2.23607 0.593012 2.23607 0
C2.23607 -0.593012 2.00046 -1.16182 1.58114 -1.58114
C1.16182 -2.00046 0.593012 -2.23607 0 -2.23607
C-0.593012 -2.23607 -1.16182 -2.00046 -1.58114 -1.58114
C-2.00046 -1.16182 -2.23607 -0.593012 -2.23607 0
C-2.23607 0.593012 -2.00046 1.16182 -1.58114 1.58114
C-1.16182 2.00046 -0.593012 2.23607 0 2.23607
z
" id="ma91c0e8a5a" style="stroke:#006388;stroke-opacity:0.6;"/>
    </defs>
    <g clip-path="url(#p44692e4afb)">
     <use style="fill:#006388;fill-opacity:0.6;stroke:#006388;stroke-opacity:0.6;" x="94.32" xlink:href="#ma91c0e8a5a" y="281.522356101"/>
     <use style="fill:#006388;fill-opacity:0.6;stroke:#006388;stroke-opacity:0.6;" x="99.9" xlink:href="#ma91c0e8a5a" y="281.948638039"/>
     <use style="fill:#006388;fill-opacity:0.6;stroke:#006388;stroke-opacity:0.6;" x="105.48" xlink:href="#ma91c0e8a5a" y="282.465581166"/>
     <use style="fill:#006388;fill-opacity:0.6;stroke:#006388;stroke-opacity:0.6;" x="111.06" xlink:href="#ma91c0e8a5a" y="282.639057865"/>
     <use style="fill:#006388;fill-opacity:0.6;stroke:#006388;stroke-opacity:0.6;" x="116.64" xlink:href="#ma91c0e8a5a" y="283.221381657"/>
     <use style="fill:#006388;fill-opacity:0.6;stroke:#006388;stroke-opacity:0.6;" x="122.22" xlink:href="#ma91c0e8a5a" y="283.23445779"/>
     <use style="fill:#006388;fill-opacity:0.6;stroke:#006388;stroke-opacity:0.6;" x="127.8" xlink:href="#ma91c0e8a5a" y="283.351271245"/>
     <use style="fill:#006388;fill-opacity:0.6;stroke:#006388;stroke-opacity:0.6;" x="133.38" xlink:href="#ma91c0e8a5a" y="283.258866572"/>
     <use style="fill:#006388;fill-opacity:0.6;stroke:#006388;stroke-opacity:0.6;" x="138.96" xlink:href="#ma91c0e8a5a" y="283.795859769"/>
     <use style="fill:#006388;fill-opacity:0.6;stroke:#006388;stroke-opacity:0.6;" x="144.54" xlink:href="#ma91c0e8a5a" y="284.112302189"/>
     <use style="fill:#006388;fill-opacity:0.6;stroke:#006388;stroke-opacity:0.6;" x="150.12" xlink:href="#ma91c0e8a5a" y="284.142813167"/>
     <use style="fill:#006388;fill-opacity:0.6;stroke:#006388;stroke-opacity:0.6;" x="155.7" xlink:href="#ma91c0e8a5a" y="284.400848859"/>
     <use style="fill:#006388;fill-opacity:0.6;stroke:#006388;stroke-opacity:0.6;" x="161.28" xlink:href="#ma91c0e8a5a" y="284.271831013"/>
     <use style="fill:#006388;fill-opacity:0.6;stroke:#006388;stroke-opacity:0.6;" x="166.86" xlink:href="#ma91c0e8a5a" y="284.177682855"/>
     <use style="fill:#006388;fill-opacity:0.6;stroke:#006388;stroke-opacity:0.6;" x="172.44" xlink:href="#ma91c0e8a5a" y="284.347672585"/>
     <use style="fill:#006388;fill-opacity:0.6;stroke:#006388;stroke-opacity:0.6;" x="178.02" xlink:href="#ma91c0e8a5a" y="284.602221308"/>
     <use style="fill:#006388;fill-opacity:0.6;stroke:#006388;stroke-opacity:0.6;" x="183.6" xlink:href="#ma91c0e8a5a" y="284.176811113"/>
     <use style="fill:#006388;fill-opacity:0.6;stroke:#006388;stroke-opacity:0.6;" x="189.18" xlink:href="#ma91c0e8a5a" y="283.876060052"/>
     <use style="fill:#006388;fill-opacity:0.6;stroke:#006388;stroke-opacity:0.6;" x="194.76" xlink:href="#ma91c0e8a5a" y="283.449778114"/>
     <use style="fill:#006388;fill-opacity:0.6;stroke:#006388;stroke-opacity:0.6;" x="200.34" xlink:href="#ma91c0e8a5a" y="282.597214239"/>
     <use style="fill:#006388;fill-opacity:0.6;stroke:#006388;stroke-opacity:0.6;" x="205.92" xlink:href="#ma91c0e8a5a" y="281.535432234"/>
     <use style="fill:#006388;fill-opacity:0.6;stroke:#006388;stroke-opacity:0.6;" x="211.5" xlink:href="#ma91c0e8a5a" y="280.335914962"/>
     <use style="fill:#006388;fill-opacity:0.6;stroke:#006388;stroke-opacity:0.6;" x="217.08" xlink:href="#ma91c0e8a5a" y="279.514733805"/>
     <use style="fill:#006388;fill-opacity:0.6;stroke:#006388;stroke-opacity:0.6;" x="222.66" xlink:href="#ma91c0e8a5a" y="277.79217121"/>
     <use style="fill:#006388;fill-opacity:0.6;stroke:#006388;stroke-opacity:0.6;" x="228.24" xlink:href="#ma91c0e8a5a" y="275.870851392"/>
     <use style="fill:#006388;fill-opacity:0.6;stroke:#006388;stroke-opacity:0.6;" x="233.82" xlink:href="#ma91c0e8a5a" y="273.805694111"/>
     <use style="fill:#006388;fill-opacity:0.6;stroke:#006388;stroke-opacity:0.6;" x="239.4" xlink:href="#ma91c0e8a5a" y="271.240156805"/>
     <use style="fill:#006388;fill-opacity:0.6;stroke:#006388;stroke-opacity:0.6;" x="244.98" xlink:href="#ma91c0e8a5a" y="268.07398912"/>
     <use style="fill:#006388;fill-opacity:0.6;stroke:#006388;stroke-opacity:0.6;" x="250.56" xlink:href="#ma91c0e8a5a" y="264.081409825"/>
     <use style="fill:#006388;fill-opacity:0.6;stroke:#006388;stroke-opacity:0.6;" x="256.14" xlink:href="#ma91c0e8a5a" y="258.966898314"/>
     <use style="fill:#006388;fill-opacity:0.6;stroke:#006388;stroke-opacity:0.6;" x="261.72" xlink:href="#ma91c0e8a5a" y="252.321607493"/>
     <use style="fill:#006388;fill-opacity:0.6;stroke:#006388;stroke-opacity:0.6;" x="267.3" xlink:href="#ma91c0e8a5a" y="245.796617095"/>
     <use style="fill:#006388;fill-opacity:0.6;stroke:#006388;stroke-opacity:0.6;" x="272.88" xlink:href="#ma91c0e8a5a" y="236.205709367"/>
     <use style="fill:#006388;fill-opacity:0.6;stroke:#006388;stroke-opacity:0.6;" x="278.46" xlink:href="#ma91c0e8a5a" y="224.256738976"/>
     <use style="fill:#006388;fill-opacity:0.6;stroke:#006388;stroke-opacity:0.6;" x="284.04" xlink:href="#ma91c0e8a5a" y="211.092559953"/>
     <use style="fill:#006388;fill-opacity:0.6;stroke:#006388;stroke-opacity:0.6;" x="289.62" xlink:href="#ma91c0e8a5a" y="195.667953394"/>
     <use style="fill:#006388;fill-opacity:0.6;stroke:#006388;stroke-opacity:0.6;" x="295.2" xlink:href="#ma91c0e8a5a" y="178.358640191"/>
     <use style="fill:#006388;fill-opacity:0.6;stroke:#006388;stroke-opacity:0.6;" x="300.78" xlink:href="#ma91c0e8a5a" y="159.754789815"/>
     <use style="fill:#006388;fill-opacity:0.6;stroke:#006388;stroke-opacity:0.6;" x="306.36" xlink:href="#ma91c0e8a5a" y="140.253044968"/>
     <use style="fill:#006388;fill-opacity:0.6;stroke:#006388;stroke-opacity:0.6;" x="311.94" xlink:href="#ma91c0e8a5a" y="120.024267124"/>
     <use style="fill:#006388;fill-opacity:0.6;stroke:#006388;stroke-opacity:0.6;" x="317.52" xlink:href="#ma91c0e8a5a" y="101.543332398"/>
     <use style="fill:#006388;fill-opacity:0.6;stroke:#006388;stroke-opacity:0.6;" x="323.1" xlink:href="#ma91c0e8a5a" y="87.1587142892"/>
     <use style="fill:#006388;fill-opacity:0.6;stroke:#006388;stroke-opacity:0.6;" x="328.68" xlink:href="#ma91c0e8a5a" y="80.6075716259"/>
     <use style="fill:#006388;fill-opacity:0.6;stroke:#006388;stroke-opacity:0.6;" x="334.26" xlink:href="#ma91c0e8a5a" y="80.3076923077"/>
     <use style="fill:#006388;fill-opacity:0.6;stroke:#006388;stroke-opacity:0.6;" x="339.84" xlink:href="#ma91c0e8a5a" y="86.7080235697"/>
     <use style="fill:#006388;fill-opacity:0.6;stroke:#006388;stroke-opacity:0.6;" x="345.42" xlink:href="#ma91c0e8a5a" y="95.4114977348"/>
     <use style="fill:#006388;fill-opacity:0.6;stroke:#006388;stroke-opacity:0.6;" x="351.0" xlink:href="#ma91c0e8a5a" y="106.350990653"/>
     <use style="fill:#006388;fill-opacity:0.6;stroke:#006388;stroke-opacity:0.6;" x="356.58" xlink:href="#ma91c0e8a5a" y="120.611821369"/>
     <use style="fill:#006388;fill-opacity:0.6;stroke:#006388;stroke-opacity:0.6;" x="362.16" xlink:href="#ma91c0e8a5a" y="133.914607403"/>
     <use style="fill:#006388;fill-opacity:0.6;stroke:#006388;stroke-opacity:0.6;" x="367.74" xlink:href="#ma91c0e8a5a" y="146.851261711"/>
     <use style="fill:#006388;fill-opacity:0.6;stroke:#006388;stroke-opacity:0.6;" x="373.32" xlink:href="#ma91c0e8a5a" y="157.887518014"/>
     <use style="fill:#006388;fill-opacity:0.6;stroke:#006388;stroke-opacity:0.6;" x="378.9" xlink:href="#ma91c0e8a5a" y="167.67108077"/>
     <use style="fill:#006388;fill-opacity:0.6;stroke:#006388;stroke-opacity:0.6;" x="384.48" xlink:href="#ma91c0e8a5a" y="175.770437587"/>
     <use style="fill:#006388;fill-opacity:0.6;stroke:#006388;stroke-opacity:0.6;" x="390.06" xlink:href="#ma91c0e8a5a" y="184.50442273"/>
     <use style="fill:#006388;fill-opacity:0.6;stroke:#006388;stroke-opacity:0.6;" x="395.64" xlink:href="#ma91c0e8a5a" y="192.439020271"/>
     <use style="fill:#006388;fill-opacity:0.6;stroke:#006388;stroke-opacity:0.6;" x="401.22" xlink:href="#ma91c0e8a5a" y="200.625551309"/>
     <use style="fill:#006388;fill-opacity:0.6;stroke:#006388;stroke-opacity:0.6;" x="406.8" xlink:href="#ma91c0e8a5a" y="208.112945099"/>
     <use style="fill:#006388;fill-opacity:0.6;stroke:#006388;stroke-opacity:0.6;" x="412.38" xlink:href="#ma91c0e8a5a" y="214.327595272"/>
     <use style="fill:#006388;fill-opacity:0.6;stroke:#006388;stroke-opacity:0.6;" x="417.96" xlink:href="#ma91c0e8a5a" y="220.592806492"/>
     <use style="fill:#006388;fill-opacity:0.6;stroke:#006388;stroke-opacity:0.6;" x="423.54" xlink:href="#ma91c0e8a5a" y="226.561625363"/>
     <use style="fill:#006388;fill-opacity:0.6;stroke:#006388;stroke-opacity:0.6;" x="429.12" xlink:href="#ma91c0e8a5a" y="231.076378238"/>
     <use style="fill:#006388;fill-opacity:0.6;stroke:#006388;stroke-opacity:0.6;" x="434.7" xlink:href="#ma91c0e8a5a" y="236.138585217"/>
     <use style="fill:#006388;fill-opacity:0.6;stroke:#006388;stroke-opacity:0.6;" x="440.28" xlink:href="#ma91c0e8a5a" y="241.053467763"/>
     <use style="fill:#006388;fill-opacity:0.6;stroke:#006388;stroke-opacity:0.6;" x="445.86" xlink:href="#ma91c0e8a5a" y="246.208079416"/>
     <use style="fill:#006388;fill-opacity:0.6;stroke:#006388;stroke-opacity:0.6;" x="451.44" xlink:href="#ma91c0e8a5a" y="250.410748581"/>
     <use style="fill:#006388;fill-opacity:0.6;stroke:#006388;stroke-opacity:0.6;" x="457.02" xlink:href="#ma91c0e8a5a" y="254.271694803"/>
     <use style="fill:#006388;fill-opacity:0.6;stroke:#006388;stroke-opacity:0.6;" x="462.6" xlink:href="#ma91c0e8a5a" y="258.323552567"/>
     <use style="fill:#006388;fill-opacity:0.6;stroke:#006388;stroke-opacity:0.6;" x="468.18" xlink:href="#ma91c0e8a5a" y="261.770421242"/>
     <use style="fill:#006388;fill-opacity:0.6;stroke:#006388;stroke-opacity:0.6;" x="473.76" xlink:href="#ma91c0e8a5a" y="264.936588927"/>
     <use style="fill:#006388;fill-opacity:0.6;stroke:#006388;stroke-opacity:0.6;" x="479.34" xlink:href="#ma91c0e8a5a" y="268.142856754"/>
     <use style="fill:#006388;fill-opacity:0.6;stroke:#006388;stroke-opacity:0.6;" x="484.92" xlink:href="#ma91c0e8a5a" y="270.558454401"/>
     <use style="fill:#006388;fill-opacity:0.6;stroke:#006388;stroke-opacity:0.6;" x="490.5" xlink:href="#ma91c0e8a5a" y="273.18414192"/>
    </g>
   </g>
   <g id="line2d_1">
    <path clip-path="url(#p44692e4afb)" d="
M127.8 304.747
L139.463 304.185
L146.59 303.778
L159.872 302.531
L166.352 301.632
L170.239 300.861
L174.451 299.8
L183.198 297.233
L187.733 295.665
L192.593 293.758
L197.452 291.623
L202.96 288.953
L209.439 285.543
L213.326 283.259
L216.566 281.116
L219.482 278.9
L222.397 276.396
L225.313 273.583
L228.877 269.796
L232.116 266.059
L234.384 263.109
L236.976 259.338
L239.244 255.639
L241.511 251.539
L244.103 246.368
L246.695 240.695
L249.286 234.522
L252.202 226.981
L255.118 218.809
L258.034 209.997
L260.949 200.537
L264.189 189.234
L267.752 175.939
L271.964 159.323
L282.331 118.197
L285.246 107.662
L287.838 99.0655
L289.458 94.3648
L291.078 90.2586
L292.698 86.7497
L293.994 84.4525
L295.289 82.6524
L296.261 81.6285
L297.233 80.8843
L298.205 80.4223
L298.853 80.3077
L299.501 80.3653
L300.149 80.5951
L300.797 80.9971
L301.769 81.923
L302.741 83.2362
L303.712 84.9368
L304.684 87.0219
L305.98 90.3973
L307.276 94.453
L308.572 99.1891
L310.192 106.06
L311.812 113.965
L313.431 122.903
L315.375 134.986
L317.319 148.498
L319.587 166.043
L322.178 188.133
L325.418 217.642
L337.729 333.154
L340.32 354.684
L341.124 361
M448.571 361
L451.44 359.007
L451.44 359.007" style="fill:none;opacity:0.5;stroke:#7e317b;stroke-linecap:square;"/>
   </g>
   <g id="line2d_2">
    <path clip-path="url(#p44692e4afb)" d="
M298.853 324
L298.853 36" style="fill:none;opacity:0.7;stroke:#aa2b4a;stroke-linecap:square;stroke-width:1.5;"/>
   </g>
   <g id="line2d_3">
    <path clip-path="url(#p44692e4afb)" d="
M262.583 324
L262.583 36" style="fill:none;opacity:0.7;stroke:#9fa161;stroke-linecap:square;"/>
   </g>
   <g id="line2d_4">
    <path clip-path="url(#p44692e4afb)" d="
M335.123 324
L335.123 36" style="fill:none;opacity:0.7;stroke:#9fa161;stroke-linecap:square;"/>
   </g>
   <g id="patch_3">
    <path d="
M72 36
L518.4 36" style="fill:none;stroke:#000000;stroke-linecap:square;stroke-linejoin:miter;"/>
   </g>
   <g id="patch_4">
    <path d="
M518.4 324
L518.4 36" style="fill:none;stroke:#000000;stroke-linecap:square;stroke-linejoin:miter;"/>
   </g>
   <g id="patch_5">
    <path d="
M72 324
L518.4 324" style="fill:none;stroke:#000000;stroke-linecap:square;stroke-linejoin:miter;"/>
   </g>
   <g id="patch_6">
    <path d="
M72 324
L72 36" style="fill:none;stroke:#000000;stroke-linecap:square;stroke-linejoin:miter;"/>
   </g>
   <g id="matplotlib.axis_1">
    <g id="xtick_1">
     <g id="line2d_5">
      <defs>
       <path d="
M0 0
L0 -4" id="m93b0483c22" style="stroke:#000000;stroke-width:0.5;"/>
      </defs>
      <g>
       <use style="stroke:#000000;stroke-width:0.5;" x="72.0" xlink:href="#m93b0483c22" y="324.0"/>
      </g>
     </g>
     <g id="line2d_6">
      <defs>
       <path d="
M0 0
L0 4" id="m741efc42ff" style="stroke:#000000;stroke-width:0.5;"/>
      </defs>
      <g>
       <use style="stroke:#000000;stroke-width:0.5;" x="72.0" xlink:href="#m741efc42ff" y="36.0"/>
      </g>
     </g>
     <g id="text_1">
      <!-- 20 -->
      <defs>
       <path d="
M19.1875 8.29688
L53.6094 8.29688
L53.6094 0
L7.32812 0
L7.32812 8.29688
Q12.9375 14.1094 22.625 23.8906
Q32.3281 33.6875 34.8125 36.5312
Q39.5469 41.8438 41.4219 45.5312
Q43.3125 49.2188 43.3125 52.7812
Q43.3125 58.5938 39.2344 62.25
Q35.1562 65.9219 28.6094 65.9219
Q23.9688 65.9219 18.8125 64.3125
Q13.6719 62.7031 7.8125 59.4219
L7.8125 69.3906
Q13.7656 71.7812 18.9375 73
Q24.125 74.2188 28.4219 74.2188
Q39.75 74.2188 46.4844 68.5469
Q53.2188 62.8906 53.2188 53.4219
Q53.2188 48.9219 51.5312 44.8906
Q49.8594 40.875 45.4062 35.4062
Q44.1875 33.9844 37.6406 27.2188
Q31.1094 20.4531 19.1875 8.29688" id="BitstreamVeraSans-Roman-32"/>
       <path d="
M31.7812 66.4062
Q24.1719 66.4062 20.3281 58.9062
Q16.5 51.4219 16.5 36.375
Q16.5 21.3906 20.3281 13.8906
Q24.1719 6.39062 31.7812 6.39062
Q39.4531 6.39062 43.2812 13.8906
Q47.125 21.3906 47.125 36.375
Q47.125 51.4219 43.2812 58.9062
Q39.4531 66.4062 31.7812 66.4062
M31.7812 74.2188
Q44.0469 74.2188 50.5156 64.5156
Q56.9844 54.8281 56.9844 36.375
Q56.9844 17.9688 50.5156 8.26562
Q44.0469 -1.42188 31.7812 -1.42188
Q19.5312 -1.42188 13.0625 8.26562
Q6.59375 17.9688 6.59375 36.375
Q6.59375 54.8281 13.0625 64.5156
Q19.5312 74.2188 31.7812 74.2188" id="BitstreamVeraSans-Roman-30"/>
      </defs>
      <g transform="translate(65.203125 337.118125)scale(0.12 -0.12)">
       <use xlink:href="#BitstreamVeraSans-Roman-32"/>
       <use x="63.623046875" xlink:href="#BitstreamVeraSans-Roman-30"/>
      </g>
     </g>
    </g>
    <g id="xtick_2">
     <g id="line2d_7">
      <g>
       <use style="stroke:#000000;stroke-width:0.5;" x="127.8" xlink:href="#m93b0483c22" y="324.0"/>
      </g>
     </g>
     <g id="line2d_8">
      <g>
       <use style="stroke:#000000;stroke-width:0.5;" x="127.8" xlink:href="#m741efc42ff" y="36.0"/>
      </g>
     </g>
     <g id="text_2">
      <!-- 30 -->
      <defs>
       <path d="
M40.5781 39.3125
Q47.6562 37.7969 51.625 33
Q55.6094 28.2188 55.6094 21.1875
Q55.6094 10.4062 48.1875 4.48438
Q40.7656 -1.42188 27.0938 -1.42188
Q22.5156 -1.42188 17.6562 -0.515625
Q12.7969 0.390625 7.625 2.20312
L7.625 11.7188
Q11.7188 9.32812 16.5938 8.10938
Q21.4844 6.89062 26.8125 6.89062
Q36.0781 6.89062 40.9375 10.5469
Q45.7969 14.2031 45.7969 21.1875
Q45.7969 27.6406 41.2812 31.2656
Q36.7656 34.9062 28.7188 34.9062
L20.2188 34.9062
L20.2188 43.0156
L29.1094 43.0156
Q36.375 43.0156 40.2344 45.9219
Q44.0938 48.8281 44.0938 54.2969
Q44.0938 59.9062 40.1094 62.9062
Q36.1406 65.9219 28.7188 65.9219
Q24.6562 65.9219 20.0156 65.0312
Q15.375 64.1562 9.8125 62.3125
L9.8125 71.0938
Q15.4375 72.6562 20.3438 73.4375
Q25.25 74.2188 29.5938 74.2188
Q40.8281 74.2188 47.3594 69.1094
Q53.9062 64.0156 53.9062 55.3281
Q53.9062 49.2656 50.4375 45.0938
Q46.9688 40.9219 40.5781 39.3125" id="BitstreamVeraSans-Roman-33"/>
      </defs>
      <g transform="translate(121.0209375 337.118125)scale(0.12 -0.12)">
       <use xlink:href="#BitstreamVeraSans-Roman-33"/>
       <use x="63.623046875" xlink:href="#BitstreamVeraSans-Roman-30"/>
      </g>
     </g>
    </g>
    <g id="xtick_3">
     <g id="line2d_9">
      <g>
       <use style="stroke:#000000;stroke-width:0.5;" x="183.6" xlink:href="#m93b0483c22" y="324.0"/>
      </g>
     </g>
     <g id="line2d_10">
      <g>
       <use style="stroke:#000000;stroke-width:0.5;" x="183.6" xlink:href="#m741efc42ff" y="36.0"/>
      </g>
     </g>
     <g id="text_3">
      <!-- 40 -->
      <defs>
       <path d="
M37.7969 64.3125
L12.8906 25.3906
L37.7969 25.3906
z

M35.2031 72.9062
L47.6094 72.9062
L47.6094 25.3906
L58.0156 25.3906
L58.0156 17.1875
L47.6094 17.1875
L47.6094 0
L37.7969 0
L37.7969 17.1875
L4.89062 17.1875
L4.89062 26.7031
z
" id="BitstreamVeraSans-Roman-34"/>
      </defs>
      <g transform="translate(176.656875 337.118125)scale(0.12 -0.12)">
       <use xlink:href="#BitstreamVeraSans-Roman-34"/>
       <use x="63.623046875" xlink:href="#BitstreamVeraSans-Roman-30"/>
      </g>
     </g>
    </g>
    <g id="xtick_4">
     <g id="line2d_11">
      <g>
       <use style="stroke:#000000;stroke-width:0.5;" x="239.4" xlink:href="#m93b0483c22" y="324.0"/>
      </g>
     </g>
     <g id="line2d_12">
      <g>
       <use style="stroke:#000000;stroke-width:0.5;" x="239.4" xlink:href="#m741efc42ff" y="36.0"/>
      </g>
     </g>
     <g id="text_4">
      <!-- 50 -->
      <defs>
       <path d="
M10.7969 72.9062
L49.5156 72.9062
L49.5156 64.5938
L19.8281 64.5938
L19.8281 46.7344
Q21.9688 47.4688 24.1094 47.8281
Q26.2656 48.1875 28.4219 48.1875
Q40.625 48.1875 47.75 41.5
Q54.8906 34.8125 54.8906 23.3906
Q54.8906 11.625 47.5625 5.09375
Q40.2344 -1.42188 26.9062 -1.42188
Q22.3125 -1.42188 17.5469 -0.640625
Q12.7969 0.140625 7.71875 1.70312
L7.71875 11.625
Q12.1094 9.23438 16.7969 8.0625
Q21.4844 6.89062 26.7031 6.89062
Q35.1562 6.89062 40.0781 11.3281
Q45.0156 15.7656 45.0156 23.3906
Q45.0156 31 40.0781 35.4375
Q35.1562 39.8906 26.7031 39.8906
Q22.75 39.8906 18.8125 39.0156
Q14.8906 38.1406 10.7969 36.2812
z
" id="BitstreamVeraSans-Roman-35"/>
      </defs>
      <g transform="translate(232.6265625 337.118125)scale(0.12 -0.12)">
       <use xlink:href="#BitstreamVeraSans-Roman-35"/>
       <use x="63.623046875" xlink:href="#BitstreamVeraSans-Roman-30"/>
      </g>
     </g>
    </g>
    <g id="xtick_5">
     <g id="line2d_13">
      <g>
       <use style="stroke:#000000;stroke-width:0.5;" x="295.2" xlink:href="#m93b0483c22" y="324.0"/>
      </g>
     </g>
     <g id="line2d_14">
      <g>
       <use style="stroke:#000000;stroke-width:0.5;" x="295.2" xlink:href="#m741efc42ff" y="36.0"/>
      </g>
     </g>
     <g id="text_5">
      <!-- 60 -->
      <defs>
       <path d="
M33.0156 40.375
Q26.375 40.375 22.4844 35.8281
Q18.6094 31.2969 18.6094 23.3906
Q18.6094 15.5312 22.4844 10.9531
Q26.375 6.39062 33.0156 6.39062
Q39.6562 6.39062 43.5312 10.9531
Q47.4062 15.5312 47.4062 23.3906
Q47.4062 31.2969 43.5312 35.8281
Q39.6562 40.375 33.0156 40.375
M52.5938 71.2969
L52.5938 62.3125
Q48.875 64.0625 45.0938 64.9844
Q41.3125 65.9219 37.5938 65.9219
Q27.8281 65.9219 22.6719 59.3281
Q17.5312 52.7344 16.7969 39.4062
Q19.6719 43.6562 24.0156 45.9219
Q28.375 48.1875 33.5938 48.1875
Q44.5781 48.1875 50.9531 41.5156
Q57.3281 34.8594 57.3281 23.3906
Q57.3281 12.1562 50.6875 5.35938
Q44.0469 -1.42188 33.0156 -1.42188
Q20.3594 -1.42188 13.6719 8.26562
Q6.98438 17.9688 6.98438 36.375
Q6.98438 53.6562 15.1875 63.9375
Q23.3906 74.2188 37.2031 74.2188
Q40.9219 74.2188 44.7031 73.4844
Q48.4844 72.75 52.5938 71.2969" id="BitstreamVeraSans-Roman-36"/>
      </defs>
      <g transform="translate(288.3825 337.118125)scale(0.12 -0.12)">
       <use xlink:href="#BitstreamVeraSans-Roman-36"/>
       <use x="63.623046875" xlink:href="#BitstreamVeraSans-Roman-30"/>
      </g>
     </g>
    </g>
    <g id="xtick_6">
     <g id="line2d_15">
      <g>
       <use style="stroke:#000000;stroke-width:0.5;" x="351.0" xlink:href="#m93b0483c22" y="324.0"/>
      </g>
     </g>
     <g id="line2d_16">
      <g>
       <use style="stroke:#000000;stroke-width:0.5;" x="351.0" xlink:href="#m741efc42ff" y="36.0"/>
      </g>
     </g>
     <g id="text_6">
      <!-- 70 -->
      <defs>
       <path d="
M8.20312 72.9062
L55.0781 72.9062
L55.0781 68.7031
L28.6094 0
L18.3125 0
L43.2188 64.5938
L8.20312 64.5938
z
" id="BitstreamVeraSans-Roman-37"/>
      </defs>
      <g transform="translate(344.255625 337.118125)scale(0.12 -0.12)">
       <use xlink:href="#BitstreamVeraSans-Roman-37"/>
       <use x="63.623046875" xlink:href="#BitstreamVeraSans-Roman-30"/>
      </g>
     </g>
    </g>
    <g id="xtick_7">
     <g id="line2d_17">
      <g>
       <use style="stroke:#000000;stroke-width:0.5;" x="406.8" xlink:href="#m93b0483c22" y="324.0"/>
      </g>
     </g>
     <g id="line2d_18">
      <g>
       <use style="stroke:#000000;stroke-width:0.5;" x="406.8" xlink:href="#m741efc42ff" y="36.0"/>
      </g>
     </g>
     <g id="text_7">
      <!-- 80 -->
      <defs>
       <path d="
M31.7812 34.625
Q24.75 34.625 20.7188 30.8594
Q16.7031 27.0938 16.7031 20.5156
Q16.7031 13.9219 20.7188 10.1562
Q24.75 6.39062 31.7812 6.39062
Q38.8125 6.39062 42.8594 10.1719
Q46.9219 13.9688 46.9219 20.5156
Q46.9219 27.0938 42.8906 30.8594
Q38.875 34.625 31.7812 34.625
M21.9219 38.8125
Q15.5781 40.375 12.0312 44.7188
Q8.5 49.0781 8.5 55.3281
Q8.5 64.0625 14.7188 69.1406
Q20.9531 74.2188 31.7812 74.2188
Q42.6719 74.2188 48.875 69.1406
Q55.0781 64.0625 55.0781 55.3281
Q55.0781 49.0781 51.5312 44.7188
Q48 40.375 41.7031 38.8125
Q48.8281 37.1562 52.7969 32.3125
Q56.7812 27.4844 56.7812 20.5156
Q56.7812 9.90625 50.3125 4.23438
Q43.8438 -1.42188 31.7812 -1.42188
Q19.7344 -1.42188 13.25 4.23438
Q6.78125 9.90625 6.78125 20.5156
Q6.78125 27.4844 10.7812 32.3125
Q14.7969 37.1562 21.9219 38.8125
M18.3125 54.3906
Q18.3125 48.7344 21.8438 45.5625
Q25.3906 42.3906 31.7812 42.3906
Q38.1406 42.3906 41.7188 45.5625
Q45.3125 48.7344 45.3125 54.3906
Q45.3125 60.0625 41.7188 63.2344
Q38.1406 66.4062 31.7812 66.4062
Q25.3906 66.4062 21.8438 63.2344
Q18.3125 60.0625 18.3125 54.3906" id="BitstreamVeraSans-Roman-38"/>
      </defs>
      <g transform="translate(399.9703125 337.118125)scale(0.12 -0.12)">
       <use xlink:href="#BitstreamVeraSans-Roman-38"/>
       <use x="63.623046875" xlink:href="#BitstreamVeraSans-Roman-30"/>
      </g>
     </g>
    </g>
    <g id="xtick_8">
     <g id="line2d_19">
      <g>
       <use style="stroke:#000000;stroke-width:0.5;" x="462.6" xlink:href="#m93b0483c22" y="324.0"/>
      </g>
     </g>
     <g id="line2d_20">
      <g>
       <use style="stroke:#000000;stroke-width:0.5;" x="462.6" xlink:href="#m741efc42ff" y="36.0"/>
      </g>
     </g>
     <g id="text_8">
      <!-- 90 -->
      <defs>
       <path d="
M10.9844 1.51562
L10.9844 10.5
Q14.7031 8.73438 18.5 7.8125
Q22.3125 6.89062 25.9844 6.89062
Q35.75 6.89062 40.8906 13.4531
Q46.0469 20.0156 46.7812 33.4062
Q43.9531 29.2031 39.5938 26.9531
Q35.25 24.7031 29.9844 24.7031
Q19.0469 24.7031 12.6719 31.3125
Q6.29688 37.9375 6.29688 49.4219
Q6.29688 60.6406 12.9375 67.4219
Q19.5781 74.2188 30.6094 74.2188
Q43.2656 74.2188 49.9219 64.5156
Q56.5938 54.8281 56.5938 36.375
Q56.5938 19.1406 48.4062 8.85938
Q40.2344 -1.42188 26.4219 -1.42188
Q22.7031 -1.42188 18.8906 -0.6875
Q15.0938 0.046875 10.9844 1.51562
M30.6094 32.4219
Q37.25 32.4219 41.125 36.9531
Q45.0156 41.5 45.0156 49.4219
Q45.0156 57.2812 41.125 61.8438
Q37.25 66.4062 30.6094 66.4062
Q23.9688 66.4062 20.0938 61.8438
Q16.2188 57.2812 16.2188 49.4219
Q16.2188 41.5 20.0938 36.9531
Q23.9688 32.4219 30.6094 32.4219" id="BitstreamVeraSans-Roman-39"/>
      </defs>
      <g transform="translate(455.74125 337.118125)scale(0.12 -0.12)">
       <use xlink:href="#BitstreamVeraSans-Roman-39"/>
       <use x="63.623046875" xlink:href="#BitstreamVeraSans-Roman-30"/>
      </g>
     </g>
    </g>
    <g id="xtick_9">
     <g id="line2d_21">
      <g>
       <use style="stroke:#000000;stroke-width:0.5;" x="518.4" xlink:href="#m93b0483c22" y="324.0"/>
      </g>
     </g>
     <g id="line2d_22">
      <g>
       <use style="stroke:#000000;stroke-width:0.5;" x="518.4" xlink:href="#m741efc42ff" y="36.0"/>
      </g>
     </g>
     <g id="text_9">
      <!-- 100 -->
      <defs>
       <path d="
M12.4062 8.29688
L28.5156 8.29688
L28.5156 63.9219
L10.9844 60.4062
L10.9844 69.3906
L28.4219 72.9062
L38.2812 72.9062
L38.2812 8.29688
L54.3906 8.29688
L54.3906 0
L12.4062 0
z
" id="BitstreamVeraSans-Roman-31"/>
      </defs>
      <g transform="translate(508.005 337.118125)scale(0.12 -0.12)">
       <use xlink:href="#BitstreamVeraSans-Roman-31"/>
       <use x="63.623046875" xlink:href="#BitstreamVeraSans-Roman-30"/>
       <use x="127.24609375" xlink:href="#BitstreamVeraSans-Roman-30"/>
      </g>
     </g>
    </g>
    <g id="text_10">
     <!-- Temperature ($^o$C) -->
     <defs>
      <path id="BitstreamVeraSans-Roman-20"/>
      <path d="
M20.125 -1.125
Q15.375 -1.125 11.6875 1.125
Q8.01562 3.375 6 7.17188
Q4 10.9844 4 15.8281
Q4 22.6094 7.78125 29.25
Q11.5781 35.8906 17.8438 40.0312
Q24.125 44.1875 31 44.1875
Q34.7188 44.1875 37.625 42.9219
Q40.5312 41.6562 42.6719 39.3594
Q44.8281 37.0625 45.9688 33.9844
Q47.125 30.9062 47.125 27.2969
Q47.125 22.0781 44.9219 17.0156
Q42.7188 11.9688 38.8906 7.84375
Q35.0625 3.71875 30.125 1.29688
Q25.2031 -1.125 20.125 -1.125
M20.3125 1.51562
Q24.75 1.51562 28.4375 4.53125
Q32.125 7.5625 34.4844 12.1719
Q36.8594 16.7969 38.125 21.9219
Q39.4062 27.0469 39.4062 31.2031
Q39.4062 35.5469 37.2344 38.5781
Q35.0625 41.6094 30.8125 41.6094
Q24.9531 41.6094 20.5469 36.5938
Q16.1562 31.5938 13.9375 24.625
Q11.7188 17.6719 11.7188 11.9219
Q11.7188 7.5625 13.9375 4.53125
Q16.1562 1.51562 20.3125 1.51562" id="Cmmi10-6f"/>
      <path d="
M41.1094 46.2969
Q39.5938 47.1719 37.8125 47.5781
Q36.0312 48 33.8906 48
Q26.2656 48 22.1875 43.0469
Q18.1094 38.0938 18.1094 28.8125
L18.1094 0
L9.07812 0
L9.07812 54.6875
L18.1094 54.6875
L18.1094 46.1875
Q20.9531 51.1719 25.4844 53.5781
Q30.0312 56 36.5312 56
Q37.4531 56 38.5781 55.875
Q39.7031 55.7656 41.0625 55.5156
z
" id="BitstreamVeraSans-Roman-72"/>
      <path d="
M52 44.1875
Q55.375 50.25 60.0625 53.125
Q64.75 56 71.0938 56
Q79.6406 56 84.2812 50.0156
Q88.9219 44.0469 88.9219 33.0156
L88.9219 0
L79.8906 0
L79.8906 32.7188
Q79.8906 40.5781 77.0938 44.375
Q74.3125 48.1875 68.6094 48.1875
Q61.625 48.1875 57.5625 43.5469
Q53.5156 38.9219 53.5156 30.9062
L53.5156 0
L44.4844 0
L44.4844 32.7188
Q44.4844 40.625 41.7031 44.4062
Q38.9219 48.1875 33.1094 48.1875
Q26.2188 48.1875 22.1562 43.5312
Q18.1094 38.875 18.1094 30.9062
L18.1094 0
L9.07812 0
L9.07812 54.6875
L18.1094 54.6875
L18.1094 46.1875
Q21.1875 51.2188 25.4844 53.6094
Q29.7812 56 35.6875 56
Q41.6562 56 45.8281 52.9688
Q50 49.9531 52 44.1875" id="BitstreamVeraSans-Roman-6d"/>
      <path d="
M8.01562 75.875
L15.8281 75.875
Q23.1406 64.3594 26.7812 53.3125
Q30.4219 42.2812 30.4219 31.3906
Q30.4219 20.4531 26.7812 9.375
Q23.1406 -1.70312 15.8281 -13.1875
L8.01562 -13.1875
Q14.5 -2 17.7031 9.0625
Q20.9062 20.125 20.9062 31.3906
Q20.9062 42.6719 17.7031 53.6562
Q14.5 64.6562 8.01562 75.875" id="BitstreamVeraSans-Roman-29"/>
      <path d="
M-0.296875 72.9062
L61.375 72.9062
L61.375 64.5938
L35.5 64.5938
L35.5 0
L25.5938 0
L25.5938 64.5938
L-0.296875 64.5938
z
" id="BitstreamVeraSans-Roman-54"/>
      <path d="
M31 75.875
Q24.4688 64.6562 21.2812 53.6562
Q18.1094 42.6719 18.1094 31.3906
Q18.1094 20.125 21.3125 9.0625
Q24.5156 -2 31 -13.1875
L23.1875 -13.1875
Q15.875 -1.70312 12.2344 9.375
Q8.59375 20.4531 8.59375 31.3906
Q8.59375 42.2812 12.2031 53.3125
Q15.8281 64.3594 23.1875 75.875
z
" id="BitstreamVeraSans-Roman-28"/>
      <path d="
M56.2031 29.5938
L56.2031 25.2031
L14.8906 25.2031
Q15.4844 15.9219 20.4844 11.0625
Q25.4844 6.20312 34.4219 6.20312
Q39.5938 6.20312 44.4531 7.46875
Q49.3125 8.73438 54.1094 11.2812
L54.1094 2.78125
Q49.2656 0.734375 44.1875 -0.34375
Q39.1094 -1.42188 33.8906 -1.42188
Q20.7969 -1.42188 13.1562 6.1875
Q5.51562 13.8125 5.51562 26.8125
Q5.51562 40.2344 12.7656 48.1094
Q20.0156 56 32.3281 56
Q43.3594 56 49.7812 48.8906
Q56.2031 41.7969 56.2031 29.5938
M47.2188 32.2344
Q47.125 39.5938 43.0938 43.9844
Q39.0625 48.3906 32.4219 48.3906
Q24.9062 48.3906 20.3906 44.1406
Q15.875 39.8906 15.1875 32.1719
z
" id="BitstreamVeraSans-Roman-65"/>
      <path d="
M64.4062 67.2812
L64.4062 56.8906
Q59.4219 61.5312 53.7812 63.8125
Q48.1406 66.1094 41.7969 66.1094
Q29.2969 66.1094 22.6562 58.4688
Q16.0156 50.8281 16.0156 36.375
Q16.0156 21.9688 22.6562 14.3281
Q29.2969 6.6875 41.7969 6.6875
Q48.1406 6.6875 53.7812 8.98438
Q59.4219 11.2812 64.4062 15.9219
L64.4062 5.60938
Q59.2344 2.09375 53.4375 0.328125
Q47.6562 -1.42188 41.2188 -1.42188
Q24.6562 -1.42188 15.125 8.70312
Q5.60938 18.8438 5.60938 36.375
Q5.60938 53.9531 15.125 64.0781
Q24.6562 74.2188 41.2188 74.2188
Q47.75 74.2188 53.5312 72.4844
Q59.3281 70.75 64.4062 67.2812" id="BitstreamVeraSans-Roman-43"/>
      <path d="
M18.3125 70.2188
L18.3125 54.6875
L36.8125 54.6875
L36.8125 47.7031
L18.3125 47.7031
L18.3125 18.0156
Q18.3125 11.3281 20.1406 9.42188
Q21.9688 7.51562 27.5938 7.51562
L36.8125 7.51562
L36.8125 0
L27.5938 0
Q17.1875 0 13.2344 3.875
Q9.28125 7.76562 9.28125 18.0156
L9.28125 47.7031
L2.6875 47.7031
L2.6875 54.6875
L9.28125 54.6875
L9.28125 70.2188
z
" id="BitstreamVeraSans-Roman-74"/>
      <path d="
M8.5 21.5781
L8.5 54.6875
L17.4844 54.6875
L17.4844 21.9219
Q17.4844 14.1562 20.5 10.2656
Q23.5312 6.39062 29.5938 6.39062
Q36.8594 6.39062 41.0781 11.0312
Q45.3125 15.6719 45.3125 23.6875
L45.3125 54.6875
L54.2969 54.6875
L54.2969 0
L45.3125 0
L45.3125 8.40625
Q42.0469 3.42188 37.7188 1
Q33.4062 -1.42188 27.6875 -1.42188
Q18.2656 -1.42188 13.375 4.4375
Q8.5 10.2969 8.5 21.5781" id="BitstreamVeraSans-Roman-75"/>
      <path d="
M34.2812 27.4844
Q23.3906 27.4844 19.1875 25
Q14.9844 22.5156 14.9844 16.5
Q14.9844 11.7188 18.1406 8.90625
Q21.2969 6.10938 26.7031 6.10938
Q34.1875 6.10938 38.7031 11.4062
Q43.2188 16.7031 43.2188 25.4844
L43.2188 27.4844
z

M52.2031 31.2031
L52.2031 0
L43.2188 0
L43.2188 8.29688
Q40.1406 3.32812 35.5469 0.953125
Q30.9531 -1.42188 24.3125 -1.42188
Q15.9219 -1.42188 10.9531 3.29688
Q6 8.01562 6 15.9219
Q6 25.1406 12.1719 29.8281
Q18.3594 34.5156 30.6094 34.5156
L43.2188 34.5156
L43.2188 35.4062
Q43.2188 41.6094 39.1406 45
Q35.0625 48.3906 27.6875 48.3906
Q23 48.3906 18.5469 47.2656
Q14.1094 46.1406 10.0156 43.8906
L10.0156 52.2031
Q14.9375 54.1094 19.5781 55.0469
Q24.2188 56 28.6094 56
Q40.4844 56 46.3438 49.8438
Q52.2031 43.7031 52.2031 31.2031" id="BitstreamVeraSans-Roman-61"/>
      <path d="
M18.1094 8.20312
L18.1094 -20.7969
L9.07812 -20.7969
L9.07812 54.6875
L18.1094 54.6875
L18.1094 46.3906
Q20.9531 51.2656 25.2656 53.625
Q29.5938 56 35.5938 56
Q45.5625 56 51.7812 48.0938
Q58.0156 40.1875 58.0156 27.2969
Q58.0156 14.4062 51.7812 6.48438
Q45.5625 -1.42188 35.5938 -1.42188
Q29.5938 -1.42188 25.2656 0.953125
Q20.9531 3.32812 18.1094 8.20312
M48.6875 27.2969
Q48.6875 37.2031 44.6094 42.8438
Q40.5312 48.4844 33.4062 48.4844
Q26.2656 48.4844 22.1875 42.8438
Q18.1094 37.2031 18.1094 27.2969
Q18.1094 17.3906 22.1875 11.75
Q26.2656 6.10938 33.4062 6.10938
Q40.5312 6.10938 44.6094 11.75
Q48.6875 17.3906 48.6875 27.2969" id="BitstreamVeraSans-Roman-70"/>
     </defs>
     <g transform="translate(241.32 353.73375)scale(0.12 -0.12)">
      <use transform="translate(0.0 0.125)" xlink:href="#BitstreamVeraSans-Roman-54"/>
      <use transform="translate(61.083984375 0.125)" xlink:href="#BitstreamVeraSans-Roman-65"/>
      <use transform="translate(122.607421875 0.125)" xlink:href="#BitstreamVeraSans-Roman-6d"/>
      <use transform="translate(220.01953125 0.125)" xlink:href="#BitstreamVeraSans-Roman-70"/>
      <use transform="translate(283.49609375 0.125)" xlink:href="#BitstreamVeraSans-Roman-65"/>
      <use transform="translate(345.01953125 0.125)" xlink:href="#BitstreamVeraSans-Roman-72"/>
      <use transform="translate(386.1328125 0.125)" xlink:href="#BitstreamVeraSans-Roman-61"/>
      <use transform="translate(447.412109375 0.125)" xlink:href="#BitstreamVeraSans-Roman-74"/>
      <use transform="translate(486.62109375 0.125)" xlink:href="#BitstreamVeraSans-Roman-75"/>
      <use transform="translate(550.0 0.125)" xlink:href="#BitstreamVeraSans-Roman-72"/>
      <use transform="translate(591.11328125 0.125)" xlink:href="#BitstreamVeraSans-Roman-65"/>
      <use transform="translate(652.63671875 0.125)" xlink:href="#BitstreamVeraSans-Roman-20"/>
      <use transform="translate(684.423828125 0.125)" xlink:href="#BitstreamVeraSans-Roman-28"/>
      <use transform="translate(723.4375 42.640625)scale(0.7)" xlink:href="#Cmmi10-6f"/>
      <use transform="translate(788.832421875 0.125)" xlink:href="#BitstreamVeraSans-Roman-43"/>
      <use transform="translate(858.656640625 0.125)" xlink:href="#BitstreamVeraSans-Roman-29"/>
     </g>
    </g>
   </g>
   <g id="matplotlib.axis_2">
    <g id="ytick_1">
     <g id="line2d_23">
      <defs>
       <path d="
M0 0
L4 0" id="m728421d6d4" style="stroke:#000000;stroke-width:0.5;"/>
      </defs>
      <g>
       <use style="stroke:#000000;stroke-width:0.5;" x="72.0" xlink:href="#m728421d6d4" y="301.846153846"/>
      </g>
     </g>
     <g id="line2d_24">
      <defs>
       <path d="
M0 0
L-4 0" id="mcb0005524f" style="stroke:#000000;stroke-width:0.5;"/>
      </defs>
      <g>
       <use style="stroke:#000000;stroke-width:0.5;" x="518.4" xlink:href="#mcb0005524f" y="301.846153846"/>
      </g>
     </g>
     <g id="text_11">
      <!-- 0.0 -->
      <defs>
       <path d="
M10.6875 12.4062
L21 12.4062
L21 0
L10.6875 0
z
" id="BitstreamVeraSans-Roman-2e"/>
      </defs>
      <g transform="translate(50.504375 305.157403846)scale(0.12 -0.12)">
       <use xlink:href="#BitstreamVeraSans-Roman-30"/>
       <use x="63.623046875" xlink:href="#BitstreamVeraSans-Roman-2e"/>
       <use x="95.41015625" xlink:href="#BitstreamVeraSans-Roman-30"/>
      </g>
     </g>
    </g>
    <g id="ytick_2">
     <g id="line2d_25">
      <g>
       <use style="stroke:#000000;stroke-width:0.5;" x="72.0" xlink:href="#m728421d6d4" y="257.538461538"/>
      </g>
     </g>
     <g id="line2d_26">
      <g>
       <use style="stroke:#000000;stroke-width:0.5;" x="518.4" xlink:href="#mcb0005524f" y="257.538461538"/>
      </g>
     </g>
     <g id="text_12">
      <!-- 0.2 -->
      <g transform="translate(50.909375 260.849711538)scale(0.12 -0.12)">
       <use xlink:href="#BitstreamVeraSans-Roman-30"/>
       <use x="63.623046875" xlink:href="#BitstreamVeraSans-Roman-2e"/>
       <use x="95.41015625" xlink:href="#BitstreamVeraSans-Roman-32"/>
      </g>
     </g>
    </g>
    <g id="ytick_3">
     <g id="line2d_27">
      <g>
       <use style="stroke:#000000;stroke-width:0.5;" x="72.0" xlink:href="#m728421d6d4" y="213.230769231"/>
      </g>
     </g>
     <g id="line2d_28">
      <g>
       <use style="stroke:#000000;stroke-width:0.5;" x="518.4" xlink:href="#mcb0005524f" y="213.230769231"/>
      </g>
     </g>
     <g id="text_13">
      <!-- 0.4 -->
      <g transform="translate(50.380625 216.542019231)scale(0.12 -0.12)">
       <use xlink:href="#BitstreamVeraSans-Roman-30"/>
       <use x="63.623046875" xlink:href="#BitstreamVeraSans-Roman-2e"/>
       <use x="95.41015625" xlink:href="#BitstreamVeraSans-Roman-34"/>
      </g>
     </g>
    </g>
    <g id="ytick_4">
     <g id="line2d_29">
      <g>
       <use style="stroke:#000000;stroke-width:0.5;" x="72.0" xlink:href="#m728421d6d4" y="168.923076923"/>
      </g>
     </g>
     <g id="line2d_30">
      <g>
       <use style="stroke:#000000;stroke-width:0.5;" x="518.4" xlink:href="#mcb0005524f" y="168.923076923"/>
      </g>
     </g>
     <g id="text_14">
      <!-- 0.6 -->
      <g transform="translate(50.463125 172.234326923)scale(0.12 -0.12)">
       <use xlink:href="#BitstreamVeraSans-Roman-30"/>
       <use x="63.623046875" xlink:href="#BitstreamVeraSans-Roman-2e"/>
       <use x="95.41015625" xlink:href="#BitstreamVeraSans-Roman-36"/>
      </g>
     </g>
    </g>
    <g id="ytick_5">
     <g id="line2d_31">
      <g>
       <use style="stroke:#000000;stroke-width:0.5;" x="72.0" xlink:href="#m728421d6d4" y="124.615384615"/>
      </g>
     </g>
     <g id="line2d_32">
      <g>
       <use style="stroke:#000000;stroke-width:0.5;" x="518.4" xlink:href="#mcb0005524f" y="124.615384615"/>
      </g>
     </g>
     <g id="text_15">
      <!-- 0.8 -->
      <g transform="translate(50.52875 127.926634615)scale(0.12 -0.12)">
       <use xlink:href="#BitstreamVeraSans-Roman-30"/>
       <use x="63.623046875" xlink:href="#BitstreamVeraSans-Roman-2e"/>
       <use x="95.41015625" xlink:href="#BitstreamVeraSans-Roman-38"/>
      </g>
     </g>
    </g>
    <g id="ytick_6">
     <g id="line2d_33">
      <g>
       <use style="stroke:#000000;stroke-width:0.5;" x="72.0" xlink:href="#m728421d6d4" y="80.3076923077"/>
      </g>
     </g>
     <g id="line2d_34">
      <g>
       <use style="stroke:#000000;stroke-width:0.5;" x="518.4" xlink:href="#mcb0005524f" y="80.3076923077"/>
      </g>
     </g>
     <g id="text_16">
      <!-- 1.0 -->
      <g transform="translate(51.03125 83.6189423077)scale(0.12 -0.12)">
       <use xlink:href="#BitstreamVeraSans-Roman-31"/>
       <use x="63.623046875" xlink:href="#BitstreamVeraSans-Roman-2e"/>
       <use x="95.41015625" xlink:href="#BitstreamVeraSans-Roman-30"/>
      </g>
     </g>
    </g>
    <g id="ytick_7">
     <g id="text_17">
      <!-- 1.2 -->
      <g transform="translate(51.43625 39.31125)scale(0.12 -0.12)">
       <use xlink:href="#BitstreamVeraSans-Roman-31"/>
       <use x="63.623046875" xlink:href="#BitstreamVeraSans-Roman-2e"/>
       <use x="95.41015625" xlink:href="#BitstreamVeraSans-Roman-32"/>
      </g>
     </g>
    </g>
    <g id="text_18">
     <!-- Normalized Intensity -->
     <defs>
      <path d="
M9.8125 72.9062
L23.0938 72.9062
L55.4219 11.9219
L55.4219 72.9062
L64.9844 72.9062
L64.9844 0
L51.7031 0
L19.3906 60.9844
L19.3906 0
L9.8125 0
z
" id="BitstreamVeraSans-Roman-4e"/>
      <path d="
M54.8906 33.0156
L54.8906 0
L45.9062 0
L45.9062 32.7188
Q45.9062 40.4844 42.875 44.3281
Q39.8438 48.1875 33.7969 48.1875
Q26.5156 48.1875 22.3125 43.5469
Q18.1094 38.9219 18.1094 30.9062
L18.1094 0
L9.07812 0
L9.07812 54.6875
L18.1094 54.6875
L18.1094 46.1875
Q21.3438 51.125 25.7031 53.5625
Q30.0781 56 35.7969 56
Q45.2188 56 50.0469 50.1719
Q54.8906 44.3438 54.8906 33.0156" id="BitstreamVeraSans-Roman-6e"/>
      <path d="
M30.6094 48.3906
Q23.3906 48.3906 19.1875 42.75
Q14.9844 37.1094 14.9844 27.2969
Q14.9844 17.4844 19.1562 11.8438
Q23.3438 6.20312 30.6094 6.20312
Q37.7969 6.20312 41.9844 11.8594
Q46.1875 17.5312 46.1875 27.2969
Q46.1875 37.0156 41.9844 42.7031
Q37.7969 48.3906 30.6094 48.3906
M30.6094 56
Q42.3281 56 49.0156 48.375
Q55.7188 40.7656 55.7188 27.2969
Q55.7188 13.875 49.0156 6.21875
Q42.3281 -1.42188 30.6094 -1.42188
Q18.8438 -1.42188 12.1719 6.21875
Q5.51562 13.875 5.51562 27.2969
Q5.51562 40.7656 12.1719 48.375
Q18.8438 56 30.6094 56" id="BitstreamVeraSans-Roman-6f"/>
      <path d="
M9.42188 75.9844
L18.4062 75.9844
L18.4062 0
L9.42188 0
z
" id="BitstreamVeraSans-Roman-6c"/>
      <path d="
M5.51562 54.6875
L48.1875 54.6875
L48.1875 46.4844
L14.4062 7.17188
L48.1875 7.17188
L48.1875 0
L4.29688 0
L4.29688 8.20312
L38.0938 47.5156
L5.51562 47.5156
z
" id="BitstreamVeraSans-Roman-7a"/>
      <path d="
M9.42188 54.6875
L18.4062 54.6875
L18.4062 0
L9.42188 0
z

M9.42188 75.9844
L18.4062 75.9844
L18.4062 64.5938
L9.42188 64.5938
z
" id="BitstreamVeraSans-Roman-69"/>
      <path d="
M32.1719 -5.07812
Q28.375 -14.8438 24.75 -17.8125
Q21.1406 -20.7969 15.0938 -20.7969
L7.90625 -20.7969
L7.90625 -13.2812
L13.1875 -13.2812
Q16.8906 -13.2812 18.9375 -11.5156
Q21 -9.76562 23.4844 -3.21875
L25.0938 0.875
L2.98438 54.6875
L12.5 54.6875
L29.5938 11.9219
L46.6875 54.6875
L56.2031 54.6875
z
" id="BitstreamVeraSans-Roman-79"/>
      <path d="
M45.4062 46.3906
L45.4062 75.9844
L54.3906 75.9844
L54.3906 0
L45.4062 0
L45.4062 8.20312
Q42.5781 3.32812 38.25 0.953125
Q33.9375 -1.42188 27.875 -1.42188
Q17.9688 -1.42188 11.7344 6.48438
Q5.51562 14.4062 5.51562 27.2969
Q5.51562 40.1875 11.7344 48.0938
Q17.9688 56 27.875 56
Q33.9375 56 38.25 53.625
Q42.5781 51.2656 45.4062 46.3906
M14.7969 27.2969
Q14.7969 17.3906 18.875 11.75
Q22.9531 6.10938 30.0781 6.10938
Q37.2031 6.10938 41.2969 11.75
Q45.4062 17.3906 45.4062 27.2969
Q45.4062 37.2031 41.2969 42.8438
Q37.2031 48.4844 30.0781 48.4844
Q22.9531 48.4844 18.875 42.8438
Q14.7969 37.2031 14.7969 27.2969" id="BitstreamVeraSans-Roman-64"/>
      <path d="
M44.2812 53.0781
L44.2812 44.5781
Q40.4844 46.5312 36.375 47.5
Q32.2812 48.4844 27.875 48.4844
Q21.1875 48.4844 17.8438 46.4375
Q14.5 44.3906 14.5 40.2812
Q14.5 37.1562 16.8906 35.375
Q19.2812 33.5938 26.5156 31.9844
L29.5938 31.2969
Q39.1562 29.25 43.1875 25.5156
Q47.2188 21.7812 47.2188 15.0938
Q47.2188 7.46875 41.1875 3.01562
Q35.1562 -1.42188 24.6094 -1.42188
Q20.2188 -1.42188 15.4531 -0.5625
Q10.6875 0.296875 5.42188 2
L5.42188 11.2812
Q10.4062 8.6875 15.2344 7.39062
Q20.0625 6.10938 24.8125 6.10938
Q31.1562 6.10938 34.5625 8.28125
Q37.9844 10.4531 37.9844 14.4062
Q37.9844 18.0625 35.5156 20.0156
Q33.0625 21.9688 24.7031 23.7812
L21.5781 24.5156
Q13.2344 26.2656 9.51562 29.9062
Q5.8125 33.5469 5.8125 39.8906
Q5.8125 47.6094 11.2812 51.7969
Q16.75 56 26.8125 56
Q31.7812 56 36.1719 55.2656
Q40.5781 54.5469 44.2812 53.0781" id="BitstreamVeraSans-Roman-73"/>
      <path d="
M9.8125 72.9062
L19.6719 72.9062
L19.6719 0
L9.8125 0
z
" id="BitstreamVeraSans-Roman-49"/>
     </defs>
     <g transform="translate(42.885 241.869375)rotate(-90.0)scale(0.12 -0.12)">
      <use xlink:href="#BitstreamVeraSans-Roman-4e"/>
      <use x="74.8046875" xlink:href="#BitstreamVeraSans-Roman-6f"/>
      <use x="135.986328125" xlink:href="#BitstreamVeraSans-Roman-72"/>
      <use x="175.349609375" xlink:href="#BitstreamVeraSans-Roman-6d"/>
      <use x="272.76171875" xlink:href="#BitstreamVeraSans-Roman-61"/>
      <use x="334.041015625" xlink:href="#BitstreamVeraSans-Roman-6c"/>
      <use x="361.82421875" xlink:href="#BitstreamVeraSans-Roman-69"/>
      <use x="389.607421875" xlink:href="#BitstreamVeraSans-Roman-7a"/>
      <use x="442.09765625" xlink:href="#BitstreamVeraSans-Roman-65"/>
      <use x="503.62109375" xlink:href="#BitstreamVeraSans-Roman-64"/>
      <use x="567.09765625" xlink:href="#BitstreamVeraSans-Roman-20"/>
      <use x="598.884765625" xlink:href="#BitstreamVeraSans-Roman-49"/>
      <use x="628.376953125" xlink:href="#BitstreamVeraSans-Roman-6e"/>
      <use x="691.755859375" xlink:href="#BitstreamVeraSans-Roman-74"/>
      <use x="730.96484375" xlink:href="#BitstreamVeraSans-Roman-65"/>
      <use x="792.48828125" xlink:href="#BitstreamVeraSans-Roman-6e"/>
      <use x="855.8671875" xlink:href="#BitstreamVeraSans-Roman-73"/>
      <use x="907.966796875" xlink:href="#BitstreamVeraSans-Roman-69"/>
      <use x="935.75" xlink:href="#BitstreamVeraSans-Roman-74"/>
      <use x="974.958984375" xlink:href="#BitstreamVeraSans-Roman-79"/>
     </g>
    </g>
   </g>
   <g id="text_19">
    <!-- Well 4, T:60.7,  -->
    <defs>
     <path d="
M11.7188 12.4062
L22.0156 12.4062
L22.0156 4
L14.0156 -11.625
L7.71875 -11.625
L11.7188 4
z
" id="BitstreamVeraSans-Roman-2c"/>
     <path d="
M11.7188 12.4062
L22.0156 12.4062
L22.0156 0
L11.7188 0
z

M11.7188 51.7031
L22.0156 51.7031
L22.0156 39.3125
L11.7188 39.3125
z
" id="BitstreamVeraSans-Roman-3a"/>
     <path d="
M3.32812 72.9062
L13.2812 72.9062
L28.6094 11.2812
L43.8906 72.9062
L54.9844 72.9062
L70.3125 11.2812
L85.5938 72.9062
L95.6094 72.9062
L77.2969 0
L64.8906 0
L49.5156 63.2812
L33.9844 0
L21.5781 0
z
" id="BitstreamVeraSans-Roman-57"/>
    </defs>
    <g transform="translate(94.32 58.1538461538)scale(0.12 -0.12)">
     <use xlink:href="#BitstreamVeraSans-Roman-57"/>
     <use x="93.001953125" xlink:href="#BitstreamVeraSans-Roman-65"/>
     <use x="154.525390625" xlink:href="#BitstreamVeraSans-Roman-6c"/>
     <use x="182.30859375" xlink:href="#BitstreamVeraSans-Roman-6c"/>
     <use x="210.091796875" xlink:href="#BitstreamVeraSans-Roman-20"/>
     <use x="241.87890625" xlink:href="#BitstreamVeraSans-Roman-34"/>
     <use x="305.501953125" xlink:href="#BitstreamVeraSans-Roman-2c"/>
     <use x="337.2890625" xlink:href="#BitstreamVeraSans-Roman-20"/>
     <use x="369.076171875" xlink:href="#BitstreamVeraSans-Roman-54"/>
     <use x="419.16015625" xlink:href="#BitstreamVeraSans-Roman-3a"/>
     <use x="452.8515625" xlink:href="#BitstreamVeraSans-Roman-36"/>
     <use x="516.474609375" xlink:href="#BitstreamVeraSans-Roman-30"/>
     <use x="580.09765625" xlink:href="#BitstreamVeraSans-Roman-2e"/>
     <use x="611.884765625" xlink:href="#BitstreamVeraSans-Roman-37"/>
     <use x="675.5078125" xlink:href="#BitstreamVeraSans-Roman-2c"/>
     <use x="707.294921875" xlink:href="#BitstreamVeraSans-Roman-20"/>
    </g>
   </g>
  </g>
 </g>
 <defs>
  <clipPath id="p44692e4afb">
   <rect height="288.0" width="446.4" x="72.0" y="36.0"/>
  </clipPath>
 </defs>
</svg>
